<!-- Generated by Copilot -->
<svg xmlns="http://www.w3.org/2000/svg" viewBox="0 0 32 32">
  <defs>
    <linearGradient id="grad" x1="0%" y1="0%" x2="100%" y2="100%">
      <stop offset="0%" style="stop-color:#3b82f6;stop-opacity:1" />
      <stop offset="100%" style="stop-color:#6366f1;stop-opacity:1" />
    </linearGradient>
  </defs>
  
  <!-- Background -->
  <rect width="32" height="32" rx="8" fill="url(#grad)"/>
  
  <!-- Brain icon representing AI -->
  <path d="M16 6c-1.5 0-2.8.6-3.8 1.6-.4-.2-.9-.3-1.4-.3-1.7 0-3 1.3-3 3 0 .5.1 1 .3 1.4C6.6 12.2 6 13.5 6 15c0 1.1.3 2.1.8 3-.5.9-.8 1.9-.8 3 0 1.5.6 2.8 1.6 3.8-.2.4-.3.9-.3 1.4 0 1.7 1.3 3 3 3 .5 0 1-.1 1.4-.3C12.2 25.4 13.5 26 15 26h2c1.5 0 2.8-.6 3.8-1.6.4.2.9.3 1.4.3 1.7 0 3-1.3 3-3 0-.5-.1-1-.3-1.4.9-1 1.6-2.3 1.6-3.8 0-1.1-.3-2.1-.8-3 .5-.9.8-1.9.8-3 0-1.5-.6-2.8-1.6-3.8.2-.4.3-.9.3-1.4 0-1.7-1.3-3-3-3-.5 0-1 .1-1.4.3C18.8 6.6 17.5 6 16 6z" fill="white" opacity="0.9"/>
  
  <!-- Neural network nodes -->
  <circle cx="12" cy="12" r="1.5" fill="white"/>
  <circle cx="20" cy="12" r="1.5" fill="white"/>
  <circle cx="16" cy="16" r="1.5" fill="white"/>
  <circle cx="12" cy="20" r="1.5" fill="white"/>
  <circle cx="20" cy="20" r="1.5" fill="white"/>
  
  <!-- Neural network connections -->
  <line x1="12" y1="12" x2="16" y2="16" stroke="white" stroke-width="1" opacity="0.7"/>
  <line x1="20" y1="12" x2="16" y2="16" stroke="white" stroke-width="1" opacity="0.7"/>
  <line x1="16" y1="16" x2="12" y2="20" stroke="white" stroke-width="1" opacity="0.7"/>
  <line x1="16" y1="16" x2="20" y2="20" stroke="white" stroke-width="1" opacity="0.7"/>
  <line x1="12" y1="12" x2="20" y2="12" stroke="white" stroke-width="1" opacity="0.5"/>
  <line x1="12" y1="20" x2="20" y2="20" stroke="white" stroke-width="1" opacity="0.5"/>
</svg>
